<svg width="32" height="32" viewBox="0 0 32 32" fill="none" xmlns="http://www.w3.org/2000/svg">
  <!-- Background circle with gradient -->
  <circle cx="16" cy="16" r="16" fill="url(#gradient)"/>
  
  <!-- Letter "S" -->
  <path d="M12 10 C12 8, 14 8, 16 8 C18 8, 20 9, 20 11 C20 13, 18 13, 16 14 C14 15, 12 15, 12 17 C12 19, 14 20, 16 20 C18 20, 20 19, 20 18" 
        stroke="#0A0A0A" stroke-width="2" fill="none" stroke-linecap="round"/>
  
  <!-- Letter "J" -->
  <path d="M22 10 L22 18 C22 20, 20 22, 18 22 C16 22, 14 20, 14 18" 
        stroke="#0A0A0A" stroke-width="2" fill="none" stroke-linecap="round"/>
  
  <!-- Gradient definition -->
  <defs>
    <linearGradient id="gradient" x1="0%" y1="0%" x2="100%" y2="100%">
      <stop offset="0%" style="stop-color:#00FF88;stop-opacity:1" />
      <stop offset="50%" style="stop-color:#00D4FF;stop-opacity:1" />
      <stop offset="100%" style="stop-color:#FF6B9D;stop-opacity:1" />
    </linearGradient>
  </defs>
</svg>
